# MagicaVoxel @ Ephtracy

# group
o 

# material
mtllib HouseSmall.mtl
usemtl palette

# normals
vn -1 0 0
vn 1 0 0
vn 0 0 1
vn 0 0 -1
vn 0 -1 0
vn 0 1 0

# texcoords
vt 0.982422 0.5
vt 0.986328 0.5
vt 0.990234 0.5
vt 0.994141 0.5

# verts
v -2.5 0 1
v -2.5 0 0.9
v -2.5 0 -0.9
v -2.5 0 -1
v -2.5 2.7 0.9
v -2.5 2.7 -0.9
v -2.5 2.8 1
v -2.5 2.8 -1
v -2.5 3 2.5
v -2.5 3 -2.5
v -2.5 3.8 2.5
v -2.5 3.8 -2.5
v -2.4 0 2.4
v -2.4 0 2
v -2.4 0 0.9
v -2.4 0 -0.9
v -2.4 0 -2
v -2.4 0 -2.4
v -2.4 2.7 0.9
v -2.4 2.7 -0.9
v -2.4 3 2.4
v -2.4 3 2
v -2.4 3 -2
v -2.4 3 -2.4
v -2.4 3.8 2.4
v -2.4 3.8 -2.4
v -2.4 4 2.4
v -2.4 4 -2.4
v -2.3 0 2
v -2.3 0 1
v -2.3 0 -1
v -2.3 0 -2
v -2.3 2.8 1
v -2.3 2.8 -1
v -2.3 3 2
v -2.3 3 -2
v -2.3 4 2.3
v -2.3 4 -2.3
v -2.3 4.1 2.3
v -2.3 4.1 -2.3
v -2.2 4.1 2.2
v -2.2 4.1 -2.2
v -2.2 4.2 2.2
v -2.2 4.2 -2.2
v 2.38419e-007 1 2.5
v 2.38419e-007 1 2.3
v 2.38419e-007 1 -2.2
v 2.38419e-007 1 -2.4
v 2.38419e-007 2 2.5
v 2.38419e-007 2 2.3
v 2.38419e-007 2 -2.2
v 2.38419e-007 2 -2.4
v 0.9 1.1 2.5
v 0.9 1.1 2.4
v 0.9 1.1 -2.3
v 0.9 1.1 -2.4
v 0.9 1.9 2.5
v 0.9 1.9 2.4
v 0.9 1.9 -2.3
v 0.9 1.9 -2.4
v 2 0 2.4
v 2 0 2.3
v 2 0 -2.2
v 2 0 -2.4
v 2 0.1 2.2
v 2 0.1 2
v 2 0.1 -2
v 2 0.1 -2.1
v 2 3 2.4
v 2 3 2.3
v 2 3 2.2
v 2 3 2
v 2 3 -2
v 2 3 -2.1
v 2 3 -2.2
v 2 3 -2.4
v 2.1 0.1 2
v 2.1 0.1 -2
v 2.1 3 2
v 2.1 3 -2
v -2.2 0.1 2
v -2.2 0.1 -2
v -2.2 3 2
v -2.2 3 -2
v -2 0 2.4
v -2 0 2.3
v -2 0 -2.2
v -2 0 -2.4
v -2 0.1 2.2
v -2 0.1 2
v -2 0.1 -2
v -2 0.1 -2.1
v -2 3 2.4
v -2 3 2.3
v -2 3 2.2
v -2 3 2
v -2 3 -2
v -2 3 -2.1
v -2 3 -2.2
v -2 3 -2.4
v 0.1 1.1 2.5
v 0.1 1.1 2.4
v 0.1 1.1 -2.3
v 0.1 1.1 -2.4
v 0.1 1.9 2.5
v 0.1 1.9 2.4
v 0.1 1.9 -2.3
v 0.1 1.9 -2.4
v 1 1 2.5
v 1 1 2.3
v 1 1 -2.2
v 1 1 -2.4
v 1 2 2.5
v 1 2 2.3
v 1 2 -2.2
v 1 2 -2.4
v 2.2 0 2
v 2.2 0 -2
v 2.2 3 2
v 2.2 3 -2
v 2.2 4.1 2.2
v 2.2 4.1 -2.2
v 2.2 4.2 2.2
v 2.2 4.2 -2.2
v 2.3 4 2.3
v 2.3 4 -2.3
v 2.3 4.1 2.3
v 2.3 4.1 -2.3
v 2.4 0 2.4
v 2.4 0 2
v 2.4 0 -2
v 2.4 0 -2.4
v 2.4 3 2.4
v 2.4 3 2
v 2.4 3 -2
v 2.4 3 -2.4
v 2.4 3.8 2.4
v 2.4 3.8 -2.4
v 2.4 4 2.4
v 2.4 4 -2.4
v 2.5 3 2.5
v 2.5 3 -2.5
v 2.5 3.8 2.5
v 2.5 3.8 -2.5
v -2.5 3 2.5
v -2.5 3.8 2.5
v 2.38419e-007 1 2.5
v 2.38419e-007 2 2.5
v 0.1 1.1 2.5
v 0.1 1.9 2.5
v 0.9 1.1 2.5
v 0.9 1.9 2.5
v 1 1 2.5
v 1 2 2.5
v 2.5 3 2.5
v 2.5 3.8 2.5
v -2.4 0 2.4
v -2.4 3 2.4
v -2.4 3.8 2.4
v -2.4 4 2.4
v -2 0 2.4
v -2 3 2.4
v 0.1 1.1 2.4
v 0.1 1.9 2.4
v 0.9 1.1 2.4
v 0.9 1.9 2.4
v 2 0 2.4
v 2 3 2.4
v 2.4 0 2.4
v 2.4 3 2.4
v 2.4 3.8 2.4
v 2.4 4 2.4
v -2.3 4 2.3
v -2.3 4.1 2.3
v -2 0 2.3
v -2 3 2.3
v 2.38419e-007 1 2.3
v 2.38419e-007 2 2.3
v 1 1 2.3
v 1 2 2.3
v 2 0 2.3
v 2 3 2.3
v 2.3 4 2.3
v 2.3 4.1 2.3
v -2.2 4.1 2.2
v -2.2 4.2 2.2
v 2.2 4.1 2.2
v 2.2 4.2 2.2
v -2.5 0 1
v -2.5 2.8 1
v -2.3 0 1
v -2.3 2.8 1
v -2.5 0 -0.9
v -2.5 2.7 -0.9
v -2.4 0 -0.9
v -2.4 2.7 -0.9
v -2.4 0 -2
v -2.4 3 -2
v -2.3 0 -2
v -2.3 3 -2
v -2.2 0.1 -2
v -2.2 3 -2
v -2 0.1 -2
v -2 3 -2
v 2 0.1 -2
v 2 3 -2
v 2.1 0.1 -2
v 2.1 3 -2
v 2.2 0 -2
v 2.2 3 -2
v 2.4 0 -2
v 2.4 3 -2
v -2 0.1 -2.1
v -2 3 -2.1
v 2 0.1 -2.1
v 2 3 -2.1
v -2 0.1 2.2
v -2 3 2.2
v 2 0.1 2.2
v 2 3 2.2
v -2.4 0 2
v -2.4 3 2
v -2.3 0 2
v -2.3 3 2
v -2.2 0.1 2
v -2.2 3 2
v -2 0.1 2
v -2 3 2
v 2 0.1 2
v 2 3 2
v 2.1 0.1 2
v 2.1 3 2
v 2.2 0 2
v 2.2 3 2
v 2.4 0 2
v 2.4 3 2
v -2.5 0 0.9
v -2.5 2.7 0.9
v -2.4 0 0.9
v -2.4 2.7 0.9
v -2.5 0 -1
v -2.5 2.8 -1
v -2.3 0 -1
v -2.3 2.8 -1
v -2.2 4.1 -2.2
v -2.2 4.2 -2.2
v -2 0 -2.2
v -2 3 -2.2
v 2.38419e-007 1 -2.2
v 2.38419e-007 2 -2.2
v 1 1 -2.2
v 1 2 -2.2
v 2 0 -2.2
v 2 3 -2.2
v 2.2 4.1 -2.2
v 2.2 4.2 -2.2
v -2.3 4 -2.3
v -2.3 4.1 -2.3
v 0.1 1.1 -2.3
v 0.1 1.9 -2.3
v 0.9 1.1 -2.3
v 0.9 1.9 -2.3
v 2.3 4 -2.3
v 2.3 4.1 -2.3
v -2.4 0 -2.4
v -2.4 3 -2.4
v -2.4 3.8 -2.4
v -2.4 4 -2.4
v -2 0 -2.4
v -2 3 -2.4
v 2.38419e-007 1 -2.4
v 2.38419e-007 2 -2.4
v 0.1 1.1 -2.4
v 0.1 1.9 -2.4
v 0.9 1.1 -2.4
v 0.9 1.9 -2.4
v 1 1 -2.4
v 1 2 -2.4
v 2 0 -2.4
v 2 3 -2.4
v 2.4 0 -2.4
v 2.4 3 -2.4
v 2.4 3.8 -2.4
v 2.4 4 -2.4
v -2.5 3 -2.5
v -2.5 3.8 -2.5
v 2.5 3 -2.5
v 2.5 3.8 -2.5
v -2.4 0 2.4
v -2 0 2.4
v 2 0 2.4
v 2.4 0 2.4
v -2 0 2.3
v 2 0 2.3
v -2.4 0 2
v -2.3 0 2
v -2 0 2
v 2 0 2
v 2.2 0 2
v 2.4 0 2
v -2.5 0 1
v -2.3 0 1
v -2.5 0 0.9
v -2.4 0 0.9
v -2.5 0 -0.9
v -2.4 0 -0.9
v -2.5 0 -1
v -2.3 0 -1
v -2.4 0 -2
v -2.3 0 -2
v -2 0 -2
v 2 0 -2
v 2.2 0 -2
v 2.4 0 -2
v -2 0 -2.2
v 2 0 -2.2
v -2.4 0 -2.4
v -2 0 -2.4
v 2 0 -2.4
v 2.4 0 -2.4
v 2.38419e-007 1 2.5
v 1 1 2.5
v 2.38419e-007 1 2.3
v 1 1 2.3
v 2.38419e-007 1 -2.2
v 1 1 -2.2
v 2.38419e-007 1 -2.4
v 1 1 -2.4
v 0.1 1.9 2.5
v 0.9 1.9 2.5
v 0.1 1.9 2.4
v 0.9 1.9 2.4
v 0.1 1.9 -2.3
v 0.9 1.9 -2.3
v 0.1 1.9 -2.4
v 0.9 1.9 -2.4
v -2.5 2.7 0.9
v -2.4 2.7 0.9
v -2.5 2.7 -0.9
v -2.4 2.7 -0.9
v -2.5 3 2.5
v 2.5 3 2.5
v -2.4 3 2.4
v -2 3 2.4
v 2 3 2.4
v 2.4 3 2.4
v -2 3 2.3
v 2 3 2.3
v -2 3 2.2
v 2 3 2.2
v -2.4 3 2
v -2.3 3 2
v -2.2 3 2
v -2 3 2
v 2 3 2
v 2.1 3 2
v 2.2 3 2
v 2.4 3 2
v -2.4 3 -2
v -2.3 3 -2
v -2.2 3 -2
v -2 3 -2
v 2 3 -2
v 2.1 3 -2
v 2.2 3 -2
v 2.4 3 -2
v -2 3 -2.1
v 2 3 -2.1
v -2 3 -2.2
v 2 3 -2.2
v -2.4 3 -2.4
v -2 3 -2.4
v 2 3 -2.4
v 2.4 3 -2.4
v -2.5 3 -2.5
v 2.5 3 -2.5
v -2 0.1 2.2
v 2 0.1 2.2
v -2.2 0.1 2
v -2 0.1 2
v 2 0.1 2
v 2.1 0.1 2
v -2.2 0.1 -2
v -2 0.1 -2
v 2 0.1 -2
v 2.1 0.1 -2
v -2 0.1 -2.1
v 2 0.1 -2.1
v 0.1 1.1 2.5
v 0.9 1.1 2.5
v 0.1 1.1 2.4
v 0.9 1.1 2.4
v 0.1 1.1 -2.3
v 0.9 1.1 -2.3
v 0.1 1.1 -2.4
v 0.9 1.1 -2.4
v 2.38419e-007 2 2.5
v 1 2 2.5
v 2.38419e-007 2 2.3
v 1 2 2.3
v 2.38419e-007 2 -2.2
v 1 2 -2.2
v 2.38419e-007 2 -2.4
v 1 2 -2.4
v -2.5 2.8 1
v -2.3 2.8 1
v -2.5 2.8 -1
v -2.3 2.8 -1
v -2.5 3.8 2.5
v 2.5 3.8 2.5
v -2.4 3.8 2.4
v 2.4 3.8 2.4
v -2.4 3.8 -2.4
v 2.4 3.8 -2.4
v -2.5 3.8 -2.5
v 2.5 3.8 -2.5
v -2.4 4 2.4
v 2.4 4 2.4
v -2.3 4 2.3
v 2.3 4 2.3
v -2.3 4 -2.3
v 2.3 4 -2.3
v -2.4 4 -2.4
v 2.4 4 -2.4
v -2.3 4.1 2.3
v 2.3 4.1 2.3
v -2.2 4.1 2.2
v 2.2 4.1 2.2
v -2.2 4.1 -2.2
v 2.2 4.1 -2.2
v -2.3 4.1 -2.3
v 2.3 4.1 -2.3
v -2.2 4.2 2.2
v 2.2 4.2 2.2
v -2.2 4.2 -2.2
v 2.2 4.2 -2.2

# faces
f 5/1/1 2/1/1 1/1/1
f 6/1/1 4/1/1 3/1/1
f 7/1/1 5/1/1 1/1/1
f 7/1/1 6/1/1 5/1/1
f 8/1/1 4/1/1 6/1/1
f 8/1/1 6/1/1 7/1/1
f 11/2/1 10/2/1 9/2/1
f 12/2/1 10/2/1 11/2/1
f 19/1/1 16/1/1 15/1/1
f 20/1/1 16/1/1 19/1/1
f 21/4/1 14/4/1 13/4/1
f 22/4/1 14/4/1 21/4/1
f 23/4/1 18/4/1 17/4/1
f 24/4/1 18/4/1 23/4/1
f 27/1/1 26/1/1 25/1/1
f 28/1/1 26/1/1 27/1/1
f 33/3/1 30/3/1 29/3/1
f 34/3/1 32/3/1 31/3/1
f 35/3/1 33/3/1 29/3/1
f 35/3/1 34/3/1 33/3/1
f 36/3/1 32/3/1 34/3/1
f 36/3/1 34/3/1 35/3/1
f 39/1/1 38/1/1 37/1/1
f 40/1/1 38/1/1 39/1/1
f 43/1/1 42/1/1 41/1/1
f 44/1/1 42/1/1 43/1/1
f 49/1/1 46/1/1 45/1/1
f 50/1/1 46/1/1 49/1/1
f 51/1/1 48/1/1 47/1/1
f 52/1/1 48/1/1 51/1/1
f 57/1/1 54/1/1 53/1/1
f 58/1/1 54/1/1 57/1/1
f 59/1/1 56/1/1 55/1/1
f 60/1/1 56/1/1 59/1/1
f 69/4/1 62/4/1 61/4/1
f 70/4/1 62/4/1 69/4/1
f 71/4/1 66/4/1 65/4/1
f 72/4/1 66/4/1 71/4/1
f 73/4/1 68/4/1 67/4/1
f 74/4/1 68/4/1 73/4/1
f 75/4/1 64/4/1 63/4/1
f 76/4/1 64/4/1 75/4/1
f 79/3/1 78/3/1 77/3/1
f 80/3/1 78/3/1 79/3/1
f 81/3/2 82/3/2 83/3/2
f 83/3/2 82/3/2 84/3/2
f 85/4/2 86/4/2 93/4/2
f 93/4/2 86/4/2 94/4/2
f 89/4/2 90/4/2 95/4/2
f 95/4/2 90/4/2 96/4/2
f 91/4/2 92/4/2 97/4/2
f 97/4/2 92/4/2 98/4/2
f 87/4/2 88/4/2 99/4/2
f 99/4/2 88/4/2 100/4/2
f 101/1/2 102/1/2 105/1/2
f 105/1/2 102/1/2 106/1/2
f 103/1/2 104/1/2 107/1/2
f 107/1/2 104/1/2 108/1/2
f 109/1/2 110/1/2 113/1/2
f 113/1/2 110/1/2 114/1/2
f 111/1/2 112/1/2 115/1/2
f 115/1/2 112/1/2 116/1/2
f 117/3/2 118/3/2 119/3/2
f 119/3/2 118/3/2 120/3/2
f 121/1/2 122/1/2 123/1/2
f 123/1/2 122/1/2 124/1/2
f 125/1/2 126/1/2 127/1/2
f 127/1/2 126/1/2 128/1/2
f 129/4/2 130/4/2 133/4/2
f 133/4/2 130/4/2 134/4/2
f 131/4/2 132/4/2 135/4/2
f 135/4/2 132/4/2 136/4/2
f 137/1/2 138/1/2 139/1/2
f 139/1/2 138/1/2 140/1/2
f 141/2/2 142/2/2 143/2/2
f 143/2/2 142/2/2 144/2/2
f 149/1/3 148/1/3 147/1/3
f 150/1/3 148/1/3 149/1/3
f 151/1/3 149/1/3 147/1/3
f 152/1/3 148/1/3 150/1/3
f 153/1/3 151/1/3 147/1/3
f 153/1/3 152/1/3 151/1/3
f 154/1/3 148/1/3 152/1/3
f 154/1/3 152/1/3 153/1/3
f 155/2/3 146/2/3 145/2/3
f 156/2/3 146/2/3 155/2/3
f 161/4/3 158/4/3 157/4/3
f 162/4/3 158/4/3 161/4/3
f 165/1/3 164/1/3 163/1/3
f 166/1/3 164/1/3 165/1/3
f 169/4/3 168/4/3 167/4/3
f 170/4/3 168/4/3 169/4/3
f 171/1/3 160/1/3 159/1/3
f 172/1/3 160/1/3 171/1/3
f 177/3/3 176/3/3 175/3/3
f 178/3/3 176/3/3 177/3/3
f 179/3/3 177/3/3 175/3/3
f 180/3/3 176/3/3 178/3/3
f 181/3/3 179/3/3 175/3/3
f 181/3/3 180/3/3 179/3/3
f 182/3/3 176/3/3 180/3/3
f 182/3/3 180/3/3 181/3/3
f 183/1/3 174/1/3 173/1/3
f 184/1/3 174/1/3 183/1/3
f 187/1/3 186/1/3 185/1/3
f 188/1/3 186/1/3 187/1/3
f 191/1/3 190/1/3 189/1/3
f 192/1/3 190/1/3 191/1/3
f 195/1/3 194/1/3 193/1/3
f 196/1/3 194/1/3 195/1/3
f 199/4/3 198/4/3 197/4/3
f 200/4/3 198/4/3 199/4/3
f 203/4/3 202/4/3 201/4/3
f 204/4/3 202/4/3 203/4/3
f 207/4/3 206/4/3 205/4/3
f 208/4/3 206/4/3 207/4/3
f 211/4/3 210/4/3 209/4/3
f 212/4/3 210/4/3 211/4/3
f 215/3/3 214/3/3 213/3/3
f 216/3/3 214/3/3 215/3/3
f 217/3/4 218/3/4 219/3/4
f 219/3/4 218/3/4 220/3/4
f 221/4/4 222/4/4 223/4/4
f 223/4/4 222/4/4 224/4/4
f 225/4/4 226/4/4 227/4/4
f 227/4/4 226/4/4 228/4/4
f 229/4/4 230/4/4 231/4/4
f 231/4/4 230/4/4 232/4/4
f 233/4/4 234/4/4 235/4/4
f 235/4/4 234/4/4 236/4/4
f 237/1/4 238/1/4 239/1/4
f 239/1/4 238/1/4 240/1/4
f 241/1/4 242/1/4 243/1/4
f 243/1/4 242/1/4 244/1/4
f 247/3/4 248/3/4 249/3/4
f 249/3/4 248/3/4 250/3/4
f 247/3/4 249/3/4 251/3/4
f 250/3/4 248/3/4 252/3/4
f 247/3/4 251/3/4 253/3/4
f 251/3/4 252/3/4 253/3/4
f 252/3/4 248/3/4 254/3/4
f 253/3/4 252/3/4 254/3/4
f 245/1/4 246/1/4 255/1/4
f 255/1/4 246/1/4 256/1/4
f 259/1/4 260/1/4 261/1/4
f 261/1/4 260/1/4 262/1/4
f 257/1/4 258/1/4 263/1/4
f 263/1/4 258/1/4 264/1/4
f 265/4/4 266/4/4 269/4/4
f 269/4/4 266/4/4 270/4/4
f 271/1/4 272/1/4 273/1/4
f 273/1/4 272/1/4 274/1/4
f 271/1/4 273/1/4 275/1/4
f 274/1/4 272/1/4 276/1/4
f 271/1/4 275/1/4 277/1/4
f 275/1/4 276/1/4 277/1/4
f 276/1/4 272/1/4 278/1/4
f 277/1/4 276/1/4 278/1/4
f 279/4/4 280/4/4 281/4/4
f 281/4/4 280/4/4 282/4/4
f 267/1/4 268/1/4 283/1/4
f 283/1/4 268/1/4 284/1/4
f 285/2/4 286/2/4 287/2/4
f 287/2/4 286/2/4 288/2/4
f 293/4/5 290/4/5 289/4/5
f 294/4/5 292/4/5 291/4/5
f 295/4/5 293/4/5 289/4/5
f 296/4/5 293/4/5 295/4/5
f 297/3/5 294/3/5 293/3/5
f 297/4/5 293/4/5 296/4/5
f 298/4/5 292/4/5 294/4/5
f 298/3/5 294/3/5 297/3/5
f 299/4/5 292/4/5 298/4/5
f 300/4/5 292/4/5 299/4/5
f 302/3/5 297/3/5 296/3/5
f 302/3/5 299/3/5 298/3/5
f 302/3/5 298/3/5 297/3/5
f 303/1/5 302/1/5 301/1/5
f 304/1/5 302/1/5 303/1/5
f 306/1/5 302/1/5 304/1/5
f 307/1/5 306/1/5 305/1/5
f 308/3/5 299/3/5 302/3/5
f 308/1/5 306/1/5 307/1/5
f 308/1/5 302/1/5 306/1/5
f 310/3/5 299/3/5 308/3/5
f 311/3/5 299/3/5 310/3/5
f 312/3/5 299/3/5 311/3/5
f 313/3/5 299/3/5 312/3/5
f 315/4/5 310/4/5 309/4/5
f 315/4/5 311/4/5 310/4/5
f 315/3/5 312/3/5 311/3/5
f 316/4/5 314/4/5 313/4/5
f 316/3/5 312/3/5 315/3/5
f 316/4/5 313/4/5 312/4/5
f 317/4/5 315/4/5 309/4/5
f 318/4/5 315/4/5 317/4/5
f 319/4/5 314/4/5 316/4/5
f 320/4/5 314/4/5 319/4/5
f 323/1/5 322/1/5 321/1/5
f 324/1/5 322/1/5 323/1/5
f 327/1/5 326/1/5 325/1/5
f 328/1/5 326/1/5 327/1/5
f 331/1/5 330/1/5 329/1/5
f 332/1/5 330/1/5 331/1/5
f 335/1/5 334/1/5 333/1/5
f 336/1/5 334/1/5 335/1/5
f 339/1/5 338/1/5 337/1/5
f 340/1/5 338/1/5 339/1/5
f 343/2/5 342/2/5 341/2/5
f 344/2/5 342/2/5 343/2/5
f 345/2/5 342/2/5 344/2/5
f 346/2/5 342/2/5 345/2/5
f 347/2/5 345/2/5 344/2/5
f 348/2/5 345/2/5 347/2/5
f 351/2/5 343/2/5 341/2/5
f 354/2/5 350/2/5 349/2/5
f 355/2/5 350/2/5 354/2/5
f 358/2/5 342/2/5 346/2/5
f 359/2/5 352/2/5 351/2/5
f 359/2/5 351/2/5 341/2/5
f 360/2/5 352/2/5 359/2/5
f 361/2/5 356/2/5 355/2/5
f 361/2/5 355/2/5 354/2/5
f 361/2/5 354/2/5 353/2/5
f 362/2/5 356/2/5 361/2/5
f 363/2/5 356/2/5 362/2/5
f 364/2/5 356/2/5 363/2/5
f 365/2/5 358/2/5 357/2/5
f 366/2/5 342/2/5 358/2/5
f 366/2/5 358/2/5 365/2/5
f 367/2/5 363/2/5 362/2/5
f 368/2/5 363/2/5 367/2/5
f 371/2/5 359/2/5 341/2/5
f 372/2/5 370/2/5 369/2/5
f 373/2/5 370/2/5 372/2/5
f 374/2/5 342/2/5 366/2/5
f 375/2/5 373/2/5 372/2/5
f 375/2/5 374/2/5 373/2/5
f 375/2/5 371/2/5 341/2/5
f 375/2/5 372/2/5 371/2/5
f 376/2/5 342/2/5 374/2/5
f 376/2/5 374/2/5 375/2/5
f 377/3/6 378/3/6 380/3/6
f 380/3/6 378/3/6 381/3/6
f 379/3/6 380/3/6 383/3/6
f 381/3/6 382/3/6 383/3/6
f 380/3/6 381/3/6 383/3/6
f 383/3/6 382/3/6 384/3/6
f 384/3/6 382/3/6 385/3/6
f 385/3/6 382/3/6 386/3/6
f 384/3/6 385/3/6 387/3/6
f 387/3/6 385/3/6 388/3/6
f 389/1/6 390/1/6 391/1/6
f 391/1/6 390/1/6 392/1/6
f 393/1/6 394/1/6 395/1/6
f 395/1/6 394/1/6 396/1/6
f 397/1/6 398/1/6 399/1/6
f 399/1/6 398/1/6 400/1/6
f 401/1/6 402/1/6 403/1/6
f 403/1/6 402/1/6 404/1/6
f 405/1/6 406/1/6 407/1/6
f 407/1/6 406/1/6 408/1/6
f 409/2/6 410/2/6 411/2/6
f 411/2/6 410/2/6 412/2/6
f 409/2/6 411/2/6 413/2/6
f 412/2/6 410/2/6 414/2/6
f 409/2/6 413/2/6 415/2/6
f 413/2/6 414/2/6 415/2/6
f 414/2/6 410/2/6 416/2/6
f 415/2/6 414/2/6 416/2/6
f 417/1/6 418/1/6 419/1/6
f 419/1/6 418/1/6 420/1/6
f 417/1/6 419/1/6 421/1/6
f 420/1/6 418/1/6 422/1/6
f 417/1/6 421/1/6 423/1/6
f 421/1/6 422/1/6 423/1/6
f 422/1/6 418/1/6 424/1/6
f 423/1/6 422/1/6 424/1/6
f 425/1/6 426/1/6 427/1/6
f 427/1/6 426/1/6 428/1/6
f 425/1/6 427/1/6 429/1/6
f 428/1/6 426/1/6 430/1/6
f 425/1/6 429/1/6 431/1/6
f 429/1/6 430/1/6 431/1/6
f 430/1/6 426/1/6 432/1/6
f 431/1/6 430/1/6 432/1/6
f 433/1/6 434/1/6 435/1/6
f 435/1/6 434/1/6 436/1/6
